<?xml version="1.0" encoding="UTF-8"?>
<svg xmlns="http://www.w3.org/2000/svg" viewBox="0 0 2048.0 2764.8" preserveAspectRatio="xMidYMid meet">
  <rect width="100%" height="100%" fill="none"/>
  <g>
    
  
  <g transform="translate(0.000000,2048.000000) scale(0.100000,-0.100000)" fill="#fef8e4" stroke="none">
    <path d="M4293 16026 c-84 -50 -177 -106 -198 -119 -11 -6 -42 -28 -70 -48 -27 -20 -81 -58 -119 -85 -380 -272 -788 -738 -926 -1059 -10 -22 -40 -87 -68 -145 -159 -328 -255 -888 -202 -1181 5 -30 19 -112 30 -184 12 -71 28 -148 35 -170 8 -22 22 -69 33 -105 188 -625 707 -1177 1357 -1446 198 -81 378 -144 416 -144 33 0 32 -3 49 150 49 432 183 976 332 1340 49 120 109 283 105 285 -5 3 -162 47 -252 71 -127 34 -276 102 -385 175 -127 84 -335 312 -370 405 -6 15 -24 57 -41 93 -129 279 -150 747 -49 1122 56 208 93 335 137 468 39 120 192 485 244 583 15 28 -4 26 -58 -6z M9855 16048 c-237 -19 -785 -109 -950 -157 -16 -5 -68 -19 -115 -31 -173 -46 -535 -171 -665 -230 -22 -10 -79 -34 -127 -54 -113 -46 -370 -179 -478 -246 -47 -29 -110 -66 -140 -83 -262 -143 -875 -654 -1100 -917 -187 -219 -377 -463 -424 -544 -22 -39 -54 -90 -71 -113 -47 -65 -82 -122 -170 -279 -40 -69 -170 -327 -187 -369 -9 -22 -35 -80 -57 -129 -23 -49 -58 -132 -77 -185 -19 -53 -46 -124 -60 -159 -13 -34 -24 -68 -24 -76 0 -7 -9 -42 -20 -77 -58 -181 -124 -450 -161 -654 -6 -33 -15 -80 -20 -105 -13 -67 -47 -323 -54 -415 -11 -139 -13 -143 -84 -187 -35 -21 -65 -38 -68 -38 -35 0 -248 -196 -331 -305 -65 -86 -128 -230 -160 -365 -40 -167 -47 -936 -11 -1151 66 -394 290 -671 684 -846 68 -30 209 -69 269 -75 24 -2 31 2 37 22 4 14 7 659 8 1433 1 815 5 1426 10 1450 5 23 14 87 21 142 11 96 16 138 41 298 22 146 51 285 85 407 20 69 39 141 44 160 13 57 78 244 106 307 14 32 39 91 55 131 118 294 332 666 620 1077 164 234 148 218 178 176 59 -82 246 -161 384 -161 195 0 317 63 579 298 244 218 710 511 1068 670 289 129 683 248 965 292 575 90 808 99 1280 49 55 -6 123 -14 150 -19 28 -5 86 -14 130 -21 347 -50 793 -198 1175 -389 274 -137 662 -386 828 -531 246 -216 309 -263 407 -305 194 -84 452 -43 590 94 25 25 49 41 54 36 4 -5 41 -56 81 -114 41 -58 92 -130 114 -161 176 -243 297 -441 428 -703 83 -165 93 -187 148 -326 23 -58 48 -120 56 -138 14 -33 73 -207 112 -332 57 -179 95 -372 137 -695 8 -66 21 -149 27 -185 9 -48 13 -452 15 -1517 3 -1195 6 -1453 17 -1453 7 0 53 9 102 19 394 85 751 404 845 757 37 138 41 200 46 662 5 616 -14 741 -151 967 -39 66 -253 288 -301 312 -16 9 -43 26 -58 39 -15 13 -47 32 -70 42 -68 31 -77 47 -88 164 -14 159 -47 382 -101 688 -6 36 -20 99 -30 140 -11 41 -29 111 -39 155 -11 44 -33 118 -48 165 -16 47 -40 121 -54 165 -14 44 -44 127 -67 185 -23 58 -49 125 -57 149 -23 68 -153 335 -220 451 -33 58 -77 139 -98 180 -22 41 -62 108 -90 149 -62 91 -56 82 -105 164 -23 38 -62 96 -88 129 -136 173 -241 301 -301 368 -37 41 -89 100 -116 130 -58 67 -55 64 -230 223 -77 71 -201 176 -275 235 -74 58 -175 138 -225 177 -82 65 -169 124 -260 175 -19 11 -52 30 -72 41 -21 12 -56 34 -78 49 -73 50 -372 207 -460 242 -27 10 -106 44 -175 75 -69 30 -134 59 -145 63 -93 40 -607 193 -702 210 -26 4 -86 15 -133 24 -538 104 -1059 140 -1505 104z M16149 16003 c35 -71 101 -213 101 -219 0 -4 11 -30 24 -58 71 -147 116 -276 197 -571 24 -85 72 -327 90 -450 17 -117 18 -480 2 -560 -15 -73 -41 -164 -54 -187 -5 -10 -9 -23 -9 -29 0 -6 -27 -66 -59 -133 -68 -139 -137 -226 -280 -350 -114 -100 -322 -226 -373 -226 -8 0 -19 -5 -24 -10 -6 -6 -42 -17 -80 -25 -91 -20 -243 -61 -251 -68 -8 -8 45 -168 105 -318 27 -68 66 -178 87 -244 20 -66 45 -147 55 -180 33 -108 97 -390 141 -625 10 -55 45 -293 54 -372 7 -59 12 -65 43 -49 9 5 37 15 62 21 487 130 1064 514 1353 900 154 204 316 531 366 735 5 22 15 58 21 80 109 406 64 1003 -108 1430 -146 363 -472 823 -737 1040 -53 44 -124 103 -156 131 -53 47 -183 142 -354 259 -61 42 -203 115 -224 115 -7 0 -4 -14 8 -37z M8585 13306 c-22 -6 -60 -19 -85 -28 -25 -9 -92 -31 -150 -48 -207 -63 -297 -100 -308 -129 -3 -9 -15 -30 -27 -47 -11 -16 -74 -138 -139 -270 -66 -131 -127 -250 -136 -264 -10 -14 -21 -35 -25 -48 -3 -13 -23 -51 -42 -85 -19 -34 -92 -174 -161 -312 -69 -137 -131 -257 -137 -265 -7 -8 -49 -87 -95 -175 -118 -229 -205 -392 -234 -438 -77 -124 -129 -308 -97 -340 6 -6 95 -14 198 -18 371 -16 708 -91 958 -216 49 -24 95 -48 100 -53 6 -4 33 -20 60 -36 114 -63 348 -269 436 -383 157 -206 299 -496 341 -696 5 -27 14 -68 19 -90 70 -312 73 -559 8 -900 -11 -60 -24 -132 -29 -160 -5 -27 -14 -66 -20 -85 -6 -19 -20 -68 -31 -109 -11 -40 -40 -124 -66 -185 -25 -61 -51 -127 -58 -146 -15 -39 -63 -143 -154 -333 -33 -70 -61 -132 -61 -137 0 -13 13 -13 26 -1 5 6 34 17 64 25 30 8 96 29 145 46 89 31 272 81 370 102 28 5 70 14 95 19 481 101 1151 110 1685 23 210 -35 600 -141 754 -206 24 -10 46 -17 48 -14 3 2 -24 62 -60 133 -93 185 -210 462 -246 583 -10 35 -42 135 -62 197 -88 276 -115 759 -58 1059 11 60 23 125 26 144 28 179 176 497 317 685 105 138 371 395 410 395 4 0 37 20 74 44 250 163 670 273 1130 295 89 4 164 10 167 12 15 15 -18 199 -44 250 -16 30 -50 94 -75 142 -26 49 -58 106 -71 128 -14 21 -25 45 -25 53 0 8 -5 18 -10 21 -6 3 -27 41 -49 83 -62 124 -196 382 -235 452 -20 36 -74 142 -120 235 -81 163 -280 539 -296 560 -4 6 -14 28 -22 50 -19 57 -124 255 -151 286 -32 36 -119 69 -477 179 -149 46 -296 31 -667 -70 -39 -11 -83 -20 -97 -20 -14 0 -51 -7 -83 -16 -32 -9 -76 -20 -98 -25 -63 -13 -221 -55 -360 -95 -27 -8 -72 -19 -100 -24 -27 -6 -67 -15 -87 -20 -223 -57 -227 -57 -363 -21 -66 17 -158 40 -205 51 -47 10 -125 30 -175 45 -150 44 -267 76 -320 85 -101 19 -193 38 -299 65 -230 56 -294 68 -386 70 -53 2 -113 -2 -135 -9z M6212 12977 c-15 -17 -102 -193 -102 -204 0 -5 -5 -14 -11 -20 -54 -54 -319 -762 -319 -851 0 -24 43 -24 138 0 48 12 217 5 303 -13 177 -36 344 -127 489 -266 43 -40 81 -73 86 -73 10 0 100 159 161 285 35 72 205 403 335 655 166 319 241 477 233 490 -10 16 -1300 13 -1313 -3z M12960 12975 c0 -14 37 -91 200 -415 24 -47 86 -170 138 -275 52 -104 112 -219 132 -255 21 -36 54 -101 74 -145 21 -44 46 -98 57 -120 83 -162 112 -216 120 -221 5 -3 38 21 72 54 271 260 501 333 922 290 44 -4 43 -2 -48 287 -76 239 -293 735 -348 794 -20 21 -24 21 -669 21 -576 0 -650 -2 -650 -15z M6970 10470 c-13 -8 -15 -84 -15 -582 0 -668 5 -735 77 -1038 86 -363 188 -605 369 -882 35 -54 91 -139 123 -190 33 -51 88 -137 123 -190 115 -176 248 -462 322 -695 37 -115 39 -116 71 -36 23 56 48 113 125 278 20 44 55 121 76 170 22 50 48 106 58 125 95 175 248 550 346 845 88 265 118 667 71 960 -38 238 -30 232 -330 270 -298 38 -380 57 -458 105 -27 17 -52 30 -56 30 -19 0 -121 79 -206 161 -148 141 -208 278 -251 570 -10 68 -23 74 -226 99 -105 12 -199 13 -219 0z M13330 10469 c-233 -16 -237 -18 -270 -179 -70 -340 -196 -519 -470 -668 -122 -66 -198 -84 -520 -122 -262 -31 -266 -35 -311 -340 -62 -422 55 -938 353 -1558 78 -164 113 -241 145 -322 14 -36 47 -110 73 -165 25 -55 68 -152 95 -215 61 -145 58 -143 80 -68 57 200 154 444 226 572 6 10 19 33 29 50 9 17 41 69 70 116 29 47 65 106 81 131 15 26 69 109 120 185 203 304 306 517 393 814 93 320 98 372 101 1113 3 625 3 628 -18 648 -11 10 -30 18 -41 18 -12 -1 -73 -5 -136 -10z M9995 7213 c-16 -1 -104 -10 -195 -19 -154 -14 -246 -27 -395 -54 -33 -6 -89 -15 -125 -21 -195 -28 -430 -119 -664 -257 -141 -83 -261 -223 -325 -379 -28 -68 -78 -298 -101 -468 -6 -44 -16 -109 -21 -145 -33 -206 -2 -389 79 -473 112 -117 313 -252 359 -241 33 7 231 75 393 134 63 23 129 45 145 49 34 8 39 49 17 146 -29 121 -33 165 -26 295 3 74 10 143 15 152 7 13 -4 28 -52 70 -69 60 -168 192 -204 270 -53 119 -79 386 -36 389 69 5 301 -61 426 -121 281 -135 373 -256 441 -590 25 -122 32 -193 37 -390 l2 -95 85 1 c47 0 144 5 215 11 86 6 199 7 335 0 113 -5 230 -10 260 -11 l55 -1 6 150 c24 589 183 832 644 984 203 66 256 76 278 50 47 -58 -15 -349 -102 -478 -42 -62 -167 -195 -190 -202 -11 -4 -12 -26 0 -142 14 -151 7 -230 -33 -366 -24 -82 -20 -100 28 -115 16 -4 97 -35 179 -67 83 -32 199 -74 258 -94 l109 -36 56 32 c400 224 433 319 330 959 -55 346 -89 434 -221 571 -78 82 -249 209 -280 209 -8 0 -25 8 -38 19 -13 10 -62 33 -109 51 -47 18 -90 37 -97 42 -16 13 -159 58 -213 68 -508 96 -1068 144 -1325 113z M9427 6153 c-65 -104 -113 -329 -104 -483 18 -288 143 -509 392 -695 143 -107 397 -183 565 -169 652 52 1041 635 830 1242 -31 89 -63 142 -85 142 -14 0 -56 -63 -106 -159 l-33 -64 14 -71 c26 -135 21 -308 -10 -364 -5 -9 -16 -34 -25 -55 -70 -180 -259 -345 -455 -398 -467 -128 -945 345 -815 808 23 83 -6 165 -96 267 -39 45 -43 45 -72 -1z M9203 4970 c-83 -32 -166 -65 -185 -73 -18 -8 -41 -18 -51 -21 -25 -8 -23 -12 73 -116 139 -151 280 -246 440 -298 62 -20 96 -27 234 -52 89 -15 985 -12 1111 4 112 14 228 51 302 94 28 16 59 33 71 36 49 16 342 294 342 325 0 9 -83 44 -255 106 -185 67 -156 69 -238 -12 -78 -76 -229 -189 -289 -216 -21 -9 -53 -24 -70 -32 -85 -38 -135 -52 -283 -80 -322 -60 -722 80 -980 344 -59 61 -37 62 -222 -9z"/>
  </g>
  <g transform="translate(0.000000,2048.000000) scale(0.100000,-0.100000)" fill="#b68312" stroke="none">
    <path d="M6020 11534 c-217 -42 -388 -210 -426 -419 -15 -82 -20 -2860 -5 -2836 7 11 10 11 17 0 4 -7 3 -14 -4 -17 -8 -2 -8 -12 3 -32 8 -16 15 -37 15 -46 0 -18 47 -104 56 -104 3 0 2 6 -1 13 -4 6 7 -3 24 -22 17 -19 28 -38 25 -42 -6 -10 26 -40 36 -34 5 3 12 0 16 -6 5 -8 3 -9 -7 -4 -12 8 -12 6 0 -8 15 -18 26 -23 16 -7 -3 6 1 10 9 10 8 0 18 -5 21 -11 4 -5 18 -15 32 -20 14 -5 23 -12 20 -15 -3 -3 -19 2 -36 11 -17 8 -31 13 -31 10 0 -3 28 -19 63 -35 77 -37 191 -55 277 -46 70 8 217 66 213 84 -2 6 4 9 12 6 20 -8 104 80 138 145 15 29 23 49 16 45 -9 -5 -10 -2 -6 10 4 10 7 21 7 24 0 4 5 0 10 -8 8 -12 10 -11 10 6 0 12 7 38 15 59 9 20 13 46 9 57 -4 14 -2 18 5 14 8 -5 11 370 10 1386 0 786 -4 1384 -9 1373 -7 -16 -9 -17 -9 -3 -1 9 -4 24 -8 34 -4 12 -3 15 6 10 26 -16 -23 122 -72 204 -41 68 -148 154 -181 145 -14 -4 -17 -3 -8 3 17 11 -13 26 -30 15 -7 -3 -8 -1 -4 5 15 24 -172 59 -244 46z m547 -1016 c-2 -18 -4 -6 -4 27 0 33 2 48 4 33 2 -15 2 -42 0 -60z m0 -210 c-2 -29 -3 -8 -3 47 0 55 1 79 3 53 2 -26 2 -71 0 -100z m0 -905 c-2 -38 -3 -7 -3 67 0 74 1 105 3 68 2 -38 2 -98 0 -135z m0 -260 c-2 -32 -3 -6 -3 57 0 63 1 89 3 58 2 -32 2 -84 0 -115z m0 -255 c-2 -29 -3 -6 -3 52 0 58 1 81 3 53 2 -29 2 -77 0 -105z m0 -465 c-2 -32 -3 -8 -3 52 0 61 1 87 3 58 2 -29 2 -78 0 -110z M14340 11533 c-91 -15 -173 -51 -252 -111 -43 -32 -68 -65 -35 -46 8 5 8 3 -2 -9 -7 -9 -17 -15 -21 -12 -11 7 -42 -43 -35 -56 4 -5 1 -8 -6 -7 -14 3 -61 -102 -78 -175 -19 -82 -15 -2811 4 -2827 8 -7 15 -18 15 -24 0 -6 -5 -4 -10 4 -15 24 -11 -2 5 -30 8 -14 14 -34 15 -44 0 -10 8 -25 18 -33 9 -8 11 -12 5 -8 -9 4 -11 1 -7 -9 3 -9 11 -13 17 -9 6 3 7 1 3 -5 -10 -16 34 -80 95 -137 30 -27 43 -38 30 -22 -30 34 -16 35 24 2 19 -16 25 -25 15 -25 -31 -2 60 -39 146 -60 106 -26 208 -23 293 10 57 22 100 48 91 54 -3 3 -1 8 4 13 5 5 6 3 2 -4 -11 -20 2 -15 42 14 44 33 53 44 45 57 -3 5 -1 6 4 3 12 -7 99 111 89 120 -3 4 -6 1 -6 -5 0 -7 -4 -12 -9 -12 -5 0 -7 9 -4 20 3 11 9 18 13 15 12 -7 42 103 35 126 -4 11 -2 19 4 19 15 0 15 2590 1 2742 -14 142 -52 229 -149 331 -39 42 -104 80 -116 69 -5 -4 -5 -2 -2 4 13 22 -160 76 -232 73 -14 -1 -37 -4 -51 -6z m-313 -3460 c7 -10 23 -31 35 -48 l21 -30 -32 30 c-33 31 -57 65 -45 65 4 0 13 -8 21 -17z"/>
  </g>

  </g>
  <text x="1024.0" y="2211.84" 
    font-family="Josefin Sans, sans-serif" font-weight="700" font-size="245.76"
    fill="#fef8e4" text-anchor="middle" letter-spacing="61.44"
    dominant-baseline="middle">AUXEN</text>
</svg>