<?xml version="1.0" encoding="UTF-8"?>
<svg xmlns="http://www.w3.org/2000/svg" viewBox="0 0 2048.0 2764.8" preserveAspectRatio="xMidYMid meet">
  <rect width="100%" height="100%" fill="none"/>
  <g>
    
  
  <g transform="translate(0.000000,2048.000000) scale(0.100000,-0.100000)" fill="#2a1f14" stroke="none">
    <path d="M10030 16054 c-106 -5 -382 -31 -475 -45 -394 -59 -699 -121 -815 -165 -19 -7 -75 -25 -125 -39 -180 -53 -281 -89 -460 -165 -55 -23 -117 -49 -138 -56 -45 -17 -167 -78 -254 -127 -34 -20 -70 -37 -80 -39 -46 -8 -466 -276 -669 -426 -184 -136 -560 -475 -674 -608 -25 -29 -93 -108 -152 -176 -130 -150 -289 -354 -325 -417 -15 -25 -52 -84 -83 -131 -31 -47 -75 -118 -98 -157 -23 -40 -60 -103 -82 -140 -139 -239 -330 -693 -420 -1003 -23 -80 -53 -180 -66 -223 -25 -83 -61 -253 -89 -422 -9 -55 -22 -138 -30 -185 -13 -77 -22 -164 -40 -360 -8 -83 1 -73 -140 -165 -131 -87 -250 -187 -296 -250 -134 -185 -196 -332 -229 -545 -17 -110 -13 -889 5 -992 32 -179 116 -402 182 -479 16 -19 46 -58 68 -87 102 -142 396 -323 611 -377 56 -13 108 -27 118 -31 15 -6 16 98 16 1402 0 1360 1 1414 20 1564 12 85 25 187 30 227 35 268 86 509 160 748 17 55 34 114 39 130 4 17 15 44 23 60 8 17 21 48 28 70 80 253 327 716 584 1092 61 90 120 177 131 194 11 17 39 53 63 80 23 27 42 54 42 59 0 20 21 8 105 -59 152 -121 305 -147 512 -86 55 16 208 112 258 161 17 16 50 45 74 64 24 19 85 70 135 113 50 44 116 96 147 116 30 20 80 55 109 76 30 22 68 49 86 60 18 11 58 38 90 59 156 104 391 224 699 356 109 47 199 76 455 148 551 157 1181 200 1745 122 141 -20 180 -26 335 -56 178 -34 616 -167 700 -213 9 -5 75 -34 148 -65 222 -94 387 -182 592 -315 226 -147 385 -268 594 -451 136 -120 226 -169 357 -196 163 -33 316 9 436 119 75 70 73 70 119 0 20 -32 64 -92 97 -133 104 -131 301 -433 387 -594 15 -28 39 -71 54 -96 45 -76 145 -289 192 -407 24 -62 64 -165 89 -228 108 -276 171 -567 245 -1135 8 -58 13 -543 15 -1527 2 -794 6 -1447 9 -1452 11 -17 284 58 307 85 6 8 17 14 23 14 28 0 183 92 261 153 224 179 345 391 400 704 18 106 22 782 4 959 -16 166 -81 379 -144 473 -14 19 -25 40 -25 46 0 6 -44 58 -99 116 -94 99 -208 187 -338 259 -51 28 -50 21 -79 310 -7 78 -45 343 -54 385 -5 22 -19 94 -31 160 -47 254 -196 730 -304 970 -102 227 -136 298 -189 400 -161 308 -378 634 -586 881 -257 306 -631 661 -875 832 -198 138 -234 164 -275 192 -389 269 -1084 575 -1590 698 -511 125 -1090 186 -1570 166z M4215 15979 c-468 -272 -894 -685 -1157 -1124 -251 -418 -394 -1007 -348 -1436 17 -162 76 -432 114 -523 9 -21 16 -45 16 -52 0 -61 265 -540 334 -603 14 -14 26 -30 26 -37 0 -37 323 -341 485 -455 88 -62 461 -269 485 -269 6 0 29 -8 53 -19 69 -30 198 -78 262 -96 33 -10 71 -21 84 -27 31 -12 27 -25 56 178 14 98 39 244 56 324 16 80 39 190 49 245 30 150 154 574 187 639 15 29 45 111 64 176 6 19 17 42 23 50 14 16 60 159 54 165 -4 4 -45 14 -158 39 -122 27 -155 37 -240 73 -215 92 -438 273 -555 452 -216 333 -259 744 -136 1299 50 228 141 525 187 614 9 17 24 54 34 82 28 77 73 181 122 284 25 50 40 92 34 91 -6 0 -65 -31 -131 -70z M16201 15898 c131 -286 220 -536 284 -798 71 -289 85 -379 92 -606 9 -285 -14 -423 -105 -636 -126 -293 -362 -514 -696 -652 -38 -16 -281 -76 -307 -76 -43 -1 -37 -80 11 -170 11 -20 64 -164 125 -338 18 -51 39 -116 46 -145 6 -28 21 -79 32 -112 27 -85 84 -329 107 -465 11 -63 27 -151 35 -195 8 -44 21 -132 30 -195 26 -194 21 -180 58 -173 39 7 255 80 357 121 68 27 128 57 305 153 293 158 632 459 799 709 68 101 206 338 206 352 0 5 9 28 21 51 91 186 179 609 179 865 0 326 -98 762 -229 1030 -28 56 -51 105 -51 107 0 3 -39 69 -87 147 -245 405 -564 732 -988 1011 -92 61 -276 167 -289 167 -3 0 27 -69 65 -152z M11755 13324 c-11 -2 -45 -9 -75 -15 -30 -6 -75 -17 -100 -24 -53 -16 -182 -45 -374 -86 -155 -33 -178 -38 -566 -138 -151 -40 -297 -79 -323 -87 -61 -20 -87 -17 -272 33 -279 76 -460 124 -495 133 -51 12 -288 66 -420 96 -63 15 -168 39 -232 55 -162 40 -235 39 -364 -5 -54 -19 -119 -41 -144 -49 -25 -8 -85 -26 -135 -40 -191 -53 -186 -48 -313 -297 -41 -80 -91 -176 -112 -215 -21 -38 -72 -135 -113 -215 -41 -80 -108 -210 -149 -290 -41 -80 -128 -248 -193 -375 -65 -126 -126 -242 -137 -257 -10 -14 -18 -29 -18 -32 0 -3 -30 -61 -67 -129 -165 -300 -193 -365 -195 -448 -1 -100 -3 -99 100 -99 430 -1 971 -131 1173 -282 19 -14 52 -35 74 -46 60 -30 161 -108 241 -187 352 -347 531 -774 569 -1357 17 -256 -87 -822 -195 -1062 -10 -22 -24 -58 -30 -79 -7 -21 -31 -77 -55 -125 -45 -93 -63 -133 -115 -251 -17 -40 -40 -88 -51 -105 -32 -52 -14 -57 66 -21 429 195 1249 304 1870 250 470 -41 805 -112 1130 -238 50 -19 92 -34 95 -32 3 2 -22 61 -57 132 -92 189 -182 390 -193 432 -5 20 -34 108 -64 196 -105 305 -139 506 -140 820 -2 430 69 697 295 1115 64 118 318 386 442 465 42 28 101 65 130 84 108 70 197 111 307 142 19 6 60 19 90 29 187 63 545 119 761 120 118 0 142 7 134 39 -4 14 -11 56 -15 92 -6 58 -102 270 -150 334 -4 6 -60 111 -123 235 -64 124 -148 286 -187 360 -39 74 -115 223 -170 330 -54 107 -130 256 -170 330 -39 74 -118 231 -176 348 l-106 213 -62 27 c-33 16 -104 41 -156 57 -52 15 -155 48 -228 72 -130 43 -197 56 -237 47z M6202 12966 c-10 -14 -40 -73 -67 -133 -26 -59 -51 -112 -55 -118 -45 -58 -242 -588 -285 -765 -16 -67 -15 -70 32 -59 189 44 454 8 623 -84 30 -17 68 -37 84 -45 60 -31 153 -102 204 -156 29 -31 56 -56 60 -56 4 0 45 75 92 168 46 92 112 217 146 279 34 61 69 133 78 160 9 27 36 83 61 125 25 43 45 81 45 85 0 4 9 19 20 33 11 14 20 31 20 39 0 11 61 129 109 211 5 8 26 51 46 95 20 44 52 111 71 148 19 37 34 75 34 82 0 13 -89 15 -649 15 l-650 0 -19 -24z M12952 12983 c28 -64 160 -321 190 -369 21 -36 47 -86 57 -112 16 -39 238 -484 294 -587 9 -16 41 -80 71 -141 122 -248 113 -241 195 -161 64 61 144 127 155 127 3 0 31 16 62 36 30 19 70 40 87 46 18 6 37 14 42 18 86 65 423 90 578 44 31 -10 20 46 -60 286 -85 258 -318 788 -356 812 -16 10 -1320 10 -1315 1z M6986 10467 c-24 -18 -37 -920 -17 -1192 11 -153 51 -420 69 -465 6 -14 27 -81 47 -150 56 -193 174 -466 245 -570 9 -14 29 -47 45 -75 15 -27 40 -68 57 -90 27 -37 69 -101 209 -322 114 -179 243 -449 309 -648 l57 -170 22 50 c13 28 35 82 51 120 15 39 55 129 88 201 34 72 70 153 81 182 11 28 44 97 72 154 28 57 62 130 74 163 13 33 44 105 70 160 234 500 314 950 249 1405 -33 227 -61 252 -304 280 -440 50 -611 124 -805 350 -89 105 -157 276 -196 498 -7 40 -17 76 -23 81 -17 13 -102 29 -196 36 -47 3 -108 8 -135 11 -34 3 -56 0 -69 -9z M13350 10469 c-131 -10 -237 -29 -250 -44 -6 -7 -14 -34 -20 -61 -25 -127 -41 -191 -61 -247 -77 -219 -207 -376 -402 -483 -146 -81 -232 -101 -597 -140 -75 -7 -160 -37 -182 -62 -96 -109 -114 -665 -33 -1007 31 -131 142 -449 210 -600 30 -66 63 -142 73 -170 11 -27 47 -106 79 -175 33 -69 72 -154 88 -190 16 -36 43 -96 61 -135 18 -38 61 -136 95 -217 62 -150 73 -166 82 -125 47 204 172 486 334 755 12 21 35 62 51 92 15 31 37 69 49 85 11 17 27 41 36 55 9 14 31 45 48 70 122 171 219 340 298 520 60 137 151 436 172 565 37 237 54 657 44 1100 -4 182 -7 341 -6 354 1 32 -25 71 -47 70 -9 -1 -64 -5 -122 -10z M9885 7209 c-240 -17 -691 -100 -855 -157 -473 -166 -711 -385 -779 -717 -50 -241 -91 -533 -91 -647 0 -207 121 -372 366 -498 l66 -34 57 16 c57 16 98 30 231 79 41 15 122 45 180 65 141 50 132 36 98 167 -38 141 -46 271 -25 381 l15 80 -86 92 c-102 107 -144 173 -183 287 -49 141 -61 329 -22 344 41 16 303 -64 472 -143 122 -58 216 -140 295 -259 71 -105 127 -361 142 -642 4 -72 10 -137 15 -144 6 -11 31 -11 131 -1 200 20 519 15 773 -11 19 -2 20 6 27 127 22 427 121 693 317 849 96 77 419 204 547 214 93 8 99 -15 60 -229 -28 -154 -91 -266 -237 -422 l-66 -71 14 -55 c28 -111 11 -304 -43 -487 -8 -27 -17 -23 336 -152 257 -94 242 -92 333 -43 87 48 225 149 264 196 65 77 101 224 88 361 -10 106 -52 387 -75 500 -11 55 -23 118 -26 140 -8 54 -42 146 -63 170 -9 11 -29 38 -43 61 -144 226 -523 423 -968 503 -132 24 -257 46 -350 61 -176 28 -643 38 -915 19z M9415 6103 c-148 -311 -114 -640 94 -921 168 -227 451 -363 750 -363 101 0 134 6 276 46 517 148 774 741 538 1243 -19 39 -39 72 -46 72 -16 0 -50 -51 -98 -150 l-41 -83 16 -103 c21 -132 20 -171 -3 -270 -53 -217 -272 -441 -481 -491 -482 -114 -909 279 -835 770 19 131 10 172 -62 267 -57 77 -64 76 -108 -17z M11026 4942 c-176 -168 -297 -235 -521 -286 -372 -87 -775 25 -1042 287 l-83 81 -112 -38 c-139 -47 -308 -116 -308 -125 0 -33 257 -267 330 -300 19 -9 67 -35 105 -58 152 -90 256 -103 849 -103 571 0 683 12 822 86 27 15 81 43 119 62 67 35 345 290 345 318 0 9 -33 24 -230 101 -188 74 -168 76 -274 -25z"/>
  </g>
  <g transform="translate(0.000000,2048.000000) scale(0.100000,-0.100000)" fill="#b68312" stroke="none">
    <path d="M5982 11520 c-192 -41 -347 -208 -387 -418 -19 -99 -23 -2704 -4 -2825 52 -332 407 -497 739 -344 103 48 207 191 230 319 17 90 8 2881 -9 2933 -76 231 -337 384 -569 335z M14291 11515 c-176 -50 -324 -201 -369 -377 -20 -80 -31 -2689 -12 -2838 34 -262 261 -444 531 -427 215 14 379 148 435 354 22 86 21 2807 -2 2916 -54 260 -338 441 -583 372z"/>
  </g>

  </g>
  <text x="1024.0" y="2211.84" 
    font-family="Josefin Sans, sans-serif" font-weight="700" font-size="245.76"
    fill="#2a1f14" text-anchor="middle" letter-spacing="61.44"
    dominant-baseline="middle">AUXEN</text>
</svg>